<svg width="465" height="251" viewBox="0 0 465 251" fill="none" xmlns="http://www.w3.org/2000/svg">
<path d="M33.6738 94.3379H46.207C46.207 94.6374 46.222 95.0866 46.252 95.6856C46.2819 96.2546 46.2969 96.7038 46.2969 97.0332C46.2969 105.029 44.6048 110.974 41.2207 114.867C37.8665 118.73 32.7155 120.662 25.7676 120.662C22.4733 120.662 19.6432 120.228 17.2773 119.359C14.9115 118.521 12.875 117.203 11.168 115.406C8.83203 113.01 7.1849 109.716 6.22656 105.523C5.26823 101.331 4.78906 94.0235 4.78906 83.6016C4.78906 76.474 5.07357 70.8138 5.64258 66.6211C6.21159 62.3985 7.09505 59.2539 8.29297 57.1875C10.1497 54.013 12.4557 51.722 15.2109 50.3145C17.9661 48.877 21.485 48.1582 25.7676 48.1582C32.7754 48.1582 37.8665 49.985 41.041 53.6387C44.2454 57.2923 45.8626 63.1621 45.8926 71.2481H33.4043V69.586C33.4043 65.8425 32.7904 63.0573 31.5625 61.2305C30.3646 59.3737 28.5228 58.4453 26.0371 58.4453C22.9525 58.4453 20.8411 59.7181 19.7031 62.2637C18.5951 64.8093 18.041 71.847 18.041 83.377C18.041 95.8353 18.5801 103.412 19.6582 106.107C20.7663 108.803 22.8626 110.15 25.9473 110.15C28.8223 110.15 30.8288 109.102 31.9668 107.006C33.1048 104.88 33.6738 100.971 33.6738 95.2813V94.3379ZM68.3535 84.4102C68.3535 95.7904 69.0124 102.963 70.3301 105.928C71.6777 108.863 74.1484 110.33 77.7422 110.33C81.276 110.33 83.6868 108.893 84.9746 106.018C86.2923 103.113 86.9512 95.9102 86.9512 84.4102C86.9512 72.9102 86.2923 65.6927 84.9746 62.7578C83.6569 59.8229 81.2161 58.3555 77.6523 58.3555C74.0885 58.3555 71.6478 59.8229 70.3301 62.7578C69.0124 65.6927 68.3535 72.9102 68.3535 84.4102ZM55.1914 84.4102C55.1914 77.0729 55.5358 71.2181 56.2246 66.8457C56.9134 62.4434 57.9915 59.1341 59.459 56.918C61.4655 53.7735 63.8613 51.5274 66.6465 50.1797C69.4316 48.832 73.1003 48.1582 77.6523 48.1582C82.2044 48.1582 85.873 48.832 88.6582 50.1797C91.4434 51.5274 93.8542 53.7735 95.8906 56.918C97.3581 59.194 98.4212 62.5182 99.0801 66.8906C99.7689 71.263 100.113 77.1029 100.113 84.4102C100.113 91.6875 99.7689 97.5274 99.0801 101.93C98.3913 106.302 97.3281 109.626 95.8906 111.902C93.8542 115.047 91.4434 117.293 88.6582 118.641C85.873 119.988 82.2044 120.662 77.6523 120.662C73.1003 120.662 69.4316 119.988 66.6465 118.641C63.8613 117.293 61.4655 115.047 59.459 111.902C57.9915 109.686 56.9134 106.392 56.2246 102.02C55.5358 97.6172 55.1914 91.7474 55.1914 84.4102ZM110.58 49.8203H123.473V96.4492C123.473 101.78 124.117 105.404 125.404 107.32C126.722 109.207 129.043 110.15 132.367 110.15C135.661 110.15 137.938 109.192 139.195 107.275C140.483 105.359 141.127 101.69 141.127 96.2695V49.8203H153.84V97.5723C153.84 102.214 153.57 105.613 153.031 107.77C152.522 109.896 151.654 111.768 150.426 113.385C148.569 115.811 146.113 117.637 143.059 118.865C140.004 120.063 136.38 120.662 132.188 120.662C124.281 120.662 118.696 118.955 115.432 115.541C112.197 112.097 110.58 106.107 110.58 97.5723V49.8203ZM178.008 80.0977H183.398C187.411 80.0977 190.227 79.319 191.844 77.7617C193.461 76.1745 194.27 73.4792 194.27 69.6758C194.27 65.8425 193.521 63.1921 192.023 61.7246C190.556 60.2272 187.741 59.4785 183.578 59.4785H178.008V80.0977ZM165.564 119V49.8203H187.936C194.764 49.8203 199.675 51.3477 202.67 54.4024C205.665 57.457 207.162 62.4583 207.162 69.4063C207.162 76.2344 205.56 81.3255 202.355 84.6797C199.181 88.0039 194.314 89.666 187.756 89.666H178.367V119H165.564ZM227.467 84.4102C227.467 95.7904 228.126 102.963 229.443 105.928C230.791 108.863 233.262 110.33 236.855 110.33C240.389 110.33 242.8 108.893 244.088 106.018C245.406 103.113 246.064 95.9102 246.064 84.4102C246.064 72.9102 245.406 65.6927 244.088 62.7578C242.77 59.8229 240.329 58.3555 236.766 58.3555C233.202 58.3555 230.761 59.8229 229.443 62.7578C228.126 65.6927 227.467 72.9102 227.467 84.4102ZM214.305 84.4102C214.305 77.0729 214.649 71.2181 215.338 66.8457C216.027 62.4434 217.105 59.1341 218.572 56.918C220.579 53.7735 222.975 51.5274 225.76 50.1797C228.545 48.832 232.214 48.1582 236.766 48.1582C241.318 48.1582 244.986 48.832 247.771 50.1797C250.557 51.5274 252.967 53.7735 255.004 56.918C256.471 59.194 257.535 62.5182 258.193 66.8906C258.882 71.263 259.227 77.1029 259.227 84.4102C259.227 91.6875 258.882 97.5274 258.193 101.93C257.505 106.302 256.441 109.626 255.004 111.902C252.967 115.047 250.557 117.293 247.771 118.641C244.986 119.988 241.318 120.662 236.766 120.662C232.214 120.662 228.545 119.988 225.76 118.641C222.975 117.293 220.579 115.047 218.572 111.902C217.105 109.686 216.027 106.392 215.338 102.02C214.649 97.6172 214.305 91.7474 214.305 84.4102ZM269.693 119V49.8203H282.945L300.959 98.2012L300.6 49.8203H312.773V119H299.611L281.463 70.5293L281.822 119H269.693Z" fill="white"/>
<path d="M18.5801 218.803H24.2852C27.1901 218.803 29.2266 218.593 30.3945 218.174C31.5625 217.755 32.4909 217.036 33.1797 216.018C34.3776 214.221 35.2311 211.765 35.7402 208.65C36.2493 205.506 36.5039 200.49 36.5039 193.602C36.5039 186.893 36.2044 182.012 35.6055 178.957C35.0065 175.902 33.9883 173.596 32.5508 172.039C31.8021 171.26 30.8288 170.721 29.6309 170.422C28.4629 170.092 26.6211 169.928 24.1055 169.928H18.5801V218.803ZM5.95703 229V159.82H26.666C30.8887 159.82 34.2428 160.18 36.7285 160.898C39.2441 161.617 41.3105 162.785 42.9277 164.402C45.3535 166.768 47.0605 169.763 48.0488 173.387C49.0671 176.98 49.5762 182.581 49.5762 190.188C49.5762 200.01 49.2318 206.958 48.543 211.031C47.8542 215.074 46.6862 218.518 45.0391 221.363C43.4518 224.208 41.2357 226.2 38.3906 227.338C35.5755 228.446 30.679 229 23.7012 229H5.95703ZM60.043 229V159.82H72.9355V229H60.043ZM83.4473 204.697H96.3398V209.145C96.3398 213.397 96.8639 216.302 97.9121 217.859C98.9902 219.387 100.832 220.15 103.438 220.15C106.163 220.15 108.229 219.462 109.637 218.084C111.074 216.706 111.793 214.67 111.793 211.975C111.793 209.908 111.299 208.141 110.311 206.674C109.322 205.176 107.181 203.26 103.887 200.924L97.2832 196.252C91.5931 192.299 87.9694 189.035 86.4121 186.459C84.8848 183.883 84.1211 180.649 84.1211 176.756C84.1211 170.946 85.8431 166.394 89.2871 163.1C92.7311 159.805 97.4779 158.158 103.527 158.158C109.936 158.158 114.848 159.91 118.262 163.414C121.676 166.918 123.383 171.949 123.383 178.508C123.383 179.167 123.368 179.676 123.338 180.035C123.338 180.395 123.323 180.709 123.293 180.979H111.074V179.137C111.074 175.393 110.46 172.713 109.232 171.096C108.005 169.479 105.983 168.67 103.168 168.67C101.102 168.67 99.4694 169.284 98.2715 170.512C97.1035 171.71 96.5195 173.387 96.5195 175.543C96.5195 178.448 99.1699 181.667 104.471 185.201L104.605 185.291L111.703 190.098C116.764 193.452 120.193 196.626 121.99 199.621C123.787 202.586 124.686 206.374 124.686 210.986C124.686 217.275 122.889 222.127 119.295 225.541C115.701 228.955 110.565 230.662 103.887 230.662C96.9388 230.662 91.7578 228.865 88.3438 225.271C84.9596 221.678 83.2676 216.197 83.2676 208.83C83.2676 208.051 83.3275 206.764 83.4473 204.967V204.697ZM162.645 204.338H175.178C175.178 204.637 175.193 205.087 175.223 205.686C175.253 206.255 175.268 206.704 175.268 207.033C175.268 215.029 173.576 220.974 170.191 224.867C166.837 228.73 161.686 230.662 154.738 230.662C151.444 230.662 148.614 230.228 146.248 229.359C143.882 228.521 141.846 227.203 140.139 225.406C137.803 223.01 136.156 219.716 135.197 215.523C134.239 211.331 133.76 204.023 133.76 193.602C133.76 186.474 134.044 180.814 134.613 176.621C135.182 172.398 136.066 169.254 137.264 167.188C139.12 164.013 141.426 161.722 144.182 160.314C146.937 158.877 150.456 158.158 154.738 158.158C161.746 158.158 166.837 159.985 170.012 163.639C173.216 167.292 174.833 173.162 174.863 181.248H162.375V179.586C162.375 175.842 161.761 173.057 160.533 171.23C159.335 169.374 157.493 168.445 155.008 168.445C151.923 168.445 149.812 169.718 148.674 172.264C147.566 174.809 147.012 181.847 147.012 193.377C147.012 205.835 147.551 213.412 148.629 216.107C149.737 218.803 151.833 220.15 154.918 220.15C157.793 220.15 159.799 219.102 160.938 217.006C162.076 214.88 162.645 210.971 162.645 205.281V204.338ZM197.324 194.41C197.324 205.79 197.983 212.963 199.301 215.928C200.648 218.863 203.119 220.33 206.713 220.33C210.247 220.33 212.658 218.893 213.945 216.018C215.263 213.113 215.922 205.91 215.922 194.41C215.922 182.91 215.263 175.693 213.945 172.758C212.628 169.823 210.187 168.355 206.623 168.355C203.059 168.355 200.618 169.823 199.301 172.758C197.983 175.693 197.324 182.91 197.324 194.41ZM184.162 194.41C184.162 187.073 184.507 181.218 185.195 176.846C185.884 172.443 186.962 169.134 188.43 166.918C190.436 163.773 192.832 161.527 195.617 160.18C198.402 158.832 202.071 158.158 206.623 158.158C211.175 158.158 214.844 158.832 217.629 160.18C220.414 161.527 222.825 163.773 224.861 166.918C226.329 169.194 227.392 172.518 228.051 176.891C228.74 181.263 229.084 187.103 229.084 194.41C229.084 201.688 228.74 207.527 228.051 211.93C227.362 216.302 226.299 219.626 224.861 221.902C222.825 225.047 220.414 227.293 217.629 228.641C214.844 229.988 211.175 230.662 206.623 230.662C202.071 230.662 198.402 229.988 195.617 228.641C192.832 227.293 190.436 225.047 188.43 221.902C186.962 219.686 185.884 216.392 185.195 212.02C184.507 207.617 184.162 201.747 184.162 194.41ZM239.551 159.82H252.443V206.449C252.443 211.78 253.087 215.404 254.375 217.32C255.693 219.207 258.014 220.15 261.338 220.15C264.632 220.15 266.908 219.192 268.166 217.275C269.454 215.359 270.098 211.69 270.098 206.27V159.82H282.811V207.572C282.811 212.214 282.541 215.613 282.002 217.77C281.493 219.896 280.624 221.768 279.396 223.385C277.54 225.811 275.084 227.637 272.029 228.865C268.975 230.063 265.351 230.662 261.158 230.662C253.252 230.662 247.667 228.955 244.402 225.541C241.168 222.097 239.551 216.107 239.551 207.572V159.82ZM294.535 229V159.82H307.787L325.801 208.201L325.441 159.82H337.615V229H324.453L306.305 180.529L306.664 229H294.535ZM359.268 229V171.23H344.443V159.82H386.984V171.23H372.16V229H359.268Z" fill="url(#paint0_linear_2001_2)"/>
<path d="M18.5801 218.803H24.2852C27.1901 218.803 29.2266 218.593 30.3945 218.174C31.5625 217.755 32.4909 217.036 33.1797 216.018C34.3776 214.221 35.2311 211.765 35.7402 208.65C36.2493 205.506 36.5039 200.49 36.5039 193.602C36.5039 186.893 36.2044 182.012 35.6055 178.957C35.0065 175.902 33.9883 173.596 32.5508 172.039C31.8021 171.26 30.8288 170.721 29.6309 170.422C28.4629 170.092 26.6211 169.928 24.1055 169.928H18.5801V218.803ZM5.95703 229V159.82H26.666C30.8887 159.82 34.2428 160.18 36.7285 160.898C39.2441 161.617 41.3105 162.785 42.9277 164.402C45.3535 166.768 47.0605 169.763 48.0488 173.387C49.0671 176.98 49.5762 182.581 49.5762 190.188C49.5762 200.01 49.2318 206.958 48.543 211.031C47.8542 215.074 46.6862 218.518 45.0391 221.363C43.4518 224.208 41.2357 226.2 38.3906 227.338C35.5755 228.446 30.679 229 23.7012 229H5.95703ZM60.043 229V159.82H72.9355V229H60.043ZM83.4473 204.697H96.3398V209.145C96.3398 213.397 96.8639 216.302 97.9121 217.859C98.9902 219.387 100.832 220.15 103.438 220.15C106.163 220.15 108.229 219.462 109.637 218.084C111.074 216.706 111.793 214.67 111.793 211.975C111.793 209.908 111.299 208.141 110.311 206.674C109.322 205.176 107.181 203.26 103.887 200.924L97.2832 196.252C91.5931 192.299 87.9694 189.035 86.4121 186.459C84.8848 183.883 84.1211 180.649 84.1211 176.756C84.1211 170.946 85.8431 166.394 89.2871 163.1C92.7311 159.805 97.4779 158.158 103.527 158.158C109.936 158.158 114.848 159.91 118.262 163.414C121.676 166.918 123.383 171.949 123.383 178.508C123.383 179.167 123.368 179.676 123.338 180.035C123.338 180.395 123.323 180.709 123.293 180.979H111.074V179.137C111.074 175.393 110.46 172.713 109.232 171.096C108.005 169.479 105.983 168.67 103.168 168.67C101.102 168.67 99.4694 169.284 98.2715 170.512C97.1035 171.71 96.5195 173.387 96.5195 175.543C96.5195 178.448 99.1699 181.667 104.471 185.201L104.605 185.291L111.703 190.098C116.764 193.452 120.193 196.626 121.99 199.621C123.787 202.586 124.686 206.374 124.686 210.986C124.686 217.275 122.889 222.127 119.295 225.541C115.701 228.955 110.565 230.662 103.887 230.662C96.9388 230.662 91.7578 228.865 88.3438 225.271C84.9596 221.678 83.2676 216.197 83.2676 208.83C83.2676 208.051 83.3275 206.764 83.4473 204.967V204.697ZM162.645 204.338H175.178C175.178 204.637 175.193 205.087 175.223 205.686C175.253 206.255 175.268 206.704 175.268 207.033C175.268 215.029 173.576 220.974 170.191 224.867C166.837 228.73 161.686 230.662 154.738 230.662C151.444 230.662 148.614 230.228 146.248 229.359C143.882 228.521 141.846 227.203 140.139 225.406C137.803 223.01 136.156 219.716 135.197 215.523C134.239 211.331 133.76 204.023 133.76 193.602C133.76 186.474 134.044 180.814 134.613 176.621C135.182 172.398 136.066 169.254 137.264 167.188C139.12 164.013 141.426 161.722 144.182 160.314C146.937 158.877 150.456 158.158 154.738 158.158C161.746 158.158 166.837 159.985 170.012 163.639C173.216 167.292 174.833 173.162 174.863 181.248H162.375V179.586C162.375 175.842 161.761 173.057 160.533 171.23C159.335 169.374 157.493 168.445 155.008 168.445C151.923 168.445 149.812 169.718 148.674 172.264C147.566 174.809 147.012 181.847 147.012 193.377C147.012 205.835 147.551 213.412 148.629 216.107C149.737 218.803 151.833 220.15 154.918 220.15C157.793 220.15 159.799 219.102 160.938 217.006C162.076 214.88 162.645 210.971 162.645 205.281V204.338ZM197.324 194.41C197.324 205.79 197.983 212.963 199.301 215.928C200.648 218.863 203.119 220.33 206.713 220.33C210.247 220.33 212.658 218.893 213.945 216.018C215.263 213.113 215.922 205.91 215.922 194.41C215.922 182.91 215.263 175.693 213.945 172.758C212.628 169.823 210.187 168.355 206.623 168.355C203.059 168.355 200.618 169.823 199.301 172.758C197.983 175.693 197.324 182.91 197.324 194.41ZM184.162 194.41C184.162 187.073 184.507 181.218 185.195 176.846C185.884 172.443 186.962 169.134 188.43 166.918C190.436 163.773 192.832 161.527 195.617 160.18C198.402 158.832 202.071 158.158 206.623 158.158C211.175 158.158 214.844 158.832 217.629 160.18C220.414 161.527 222.825 163.773 224.861 166.918C226.329 169.194 227.392 172.518 228.051 176.891C228.74 181.263 229.084 187.103 229.084 194.41C229.084 201.688 228.74 207.527 228.051 211.93C227.362 216.302 226.299 219.626 224.861 221.902C222.825 225.047 220.414 227.293 217.629 228.641C214.844 229.988 211.175 230.662 206.623 230.662C202.071 230.662 198.402 229.988 195.617 228.641C192.832 227.293 190.436 225.047 188.43 221.902C186.962 219.686 185.884 216.392 185.195 212.02C184.507 207.617 184.162 201.747 184.162 194.41ZM239.551 159.82H252.443V206.449C252.443 211.78 253.087 215.404 254.375 217.32C255.693 219.207 258.014 220.15 261.338 220.15C264.632 220.15 266.908 219.192 268.166 217.275C269.454 215.359 270.098 211.69 270.098 206.27V159.82H282.811V207.572C282.811 212.214 282.541 215.613 282.002 217.77C281.493 219.896 280.624 221.768 279.396 223.385C277.54 225.811 275.084 227.637 272.029 228.865C268.975 230.063 265.351 230.662 261.158 230.662C253.252 230.662 247.667 228.955 244.402 225.541C241.168 222.097 239.551 216.107 239.551 207.572V159.82ZM294.535 229V159.82H307.787L325.801 208.201L325.441 159.82H337.615V229H324.453L306.305 180.529L306.664 229H294.535ZM359.268 229V171.23H344.443V159.82H386.984V171.23H372.16V229H359.268Z" fill="url(#paint1_linear_2001_2)"/>
<g filter="url(#filter0_d_2001_2)">
<path d="M451.249 46.4684C451.713 49.8608 451.248 57.7058 445.675 61.9465" stroke="white" stroke-width="2" stroke-linecap="round"/>
<path d="M347.139 117.813L363.117 109.228L378.279 137.445C380.16 140.946 378.847 145.309 375.346 147.19C370.022 150.051 363.388 148.054 360.527 142.73L347.139 117.813Z" fill="#1976D2"/>
<path d="M350.959 134.771C355.18 141.997 360.655 159.196 375.366 151.832" stroke="#1976D2" stroke-width="2"/>
<path d="M321.445 107.714C316.744 99.0434 319.962 88.2042 328.632 83.5035L347.232 73.4193L363.838 104.048L344.47 114.549C336.224 119.02 325.915 115.959 321.445 107.714Z" fill="white"/>
<path d="M367.554 102.066L351.333 71.5101C373.953 62.7966 391.335 32.2584 397.199 18.0785L436.482 94.9762C410.368 85.9742 379.649 95.9519 367.554 102.066Z" fill="#1976D2"/>
<path d="M385.389 30.8074C382.509 36.7028 373.406 50.9035 360.04 60.5435" stroke="#1976D2" stroke-width="3" stroke-linecap="round"/>
<rect x="397.729" y="9.73053" width="9.85973" height="101.787" rx="4.92987" transform="rotate(-27.0206 397.729 9.73053)" fill="white"/>
<path d="M439.381 61.146C441.05 60.297 442.536 59.1274 443.753 57.7042C444.971 56.281 445.896 54.6319 446.476 52.8511C447.056 51.0703 447.28 49.1927 447.134 47.3255C446.988 45.4583 446.477 43.638 445.628 41.9687C444.778 40.2993 443.609 38.8135 442.186 37.5961C440.762 36.3787 439.113 35.4535 437.333 34.8735C435.552 34.2934 433.674 34.0697 431.807 34.2153C429.94 34.3608 428.12 34.8727 426.45 35.7218L432.915 48.4339L439.381 61.146Z" fill="white"/>
<path d="M363.158 84.6076L356.482 72.4779C376.595 63.0372 392.408 38.4661 397.8 27.3606L412.393 55.7981L363.158 84.6076Z" fill="white" fill-opacity="0.4"/>
<path d="M333.38 89.3163C325.932 93.5459 324.282 101.04 324.387 104.259C319.298 96.3933 324.574 88.5144 329.229 85.8708L345.447 77.2975L348.046 81.6241C346.26 82.4258 340.827 85.0866 333.38 89.3163Z" fill="black" fill-opacity="0.15"/>
</g>
<defs>
<filter id="filter0_d_2001_2" x="315.282" y="6.95166" width="141.103" height="155.676" filterUnits="userSpaceOnUse" color-interpolation-filters="sRGB">
<feFlood flood-opacity="0" result="BackgroundImageFix"/>
<feColorMatrix in="SourceAlpha" type="matrix" values="0 0 0 0 0 0 0 0 0 0 0 0 0 0 0 0 0 0 127 0" result="hardAlpha"/>
<feOffset dy="4"/>
<feGaussianBlur stdDeviation="2"/>
<feComposite in2="hardAlpha" operator="out"/>
<feColorMatrix type="matrix" values="0 0 0 0 0 0 0 0 0 0 0 0 0 0 0 0 0 0 0.25 0"/>
<feBlend mode="normal" in2="BackgroundImageFix" result="effect1_dropShadow_2001_2"/>
<feBlend mode="normal" in="SourceGraphic" in2="effect1_dropShadow_2001_2" result="shape"/>
</filter>
<linearGradient id="paint0_linear_2001_2" x1="0" y1="196" x2="388" y2="196" gradientUnits="userSpaceOnUse">
<stop stop-color="white"/>
<stop offset="1" stop-color="#999999"/>
</linearGradient>
<linearGradient id="paint1_linear_2001_2" x1="384.565" y1="142.035" x2="305.182" y2="361.425" gradientUnits="userSpaceOnUse">
<stop stop-color="#141F59"/>
<stop offset="1" stop-color="#6C0B53"/>
</linearGradient>
</defs>
</svg>
