<svg width="263" height="55" viewBox="0 0 263 55" fill="none" xmlns="http://www.w3.org/2000/svg">
<path fill-rule="evenodd" clip-rule="evenodd" d="M27.368 30.5899H27.677C27.7353 30.5899 27.7924 30.5878 27.8481 30.5837C27.9457 30.2475 28.0458 29.9525 28.192 29.6114C28.2435 29.5219 28.2435 29.4846 28.2435 29.4054L28.398 28.9419C28.398 28.9162 28.4355 28.79 28.473 28.6637C28.5105 28.5375 28.548 28.4112 28.548 28.3855L31.8484 13.8015C32.1059 12.5655 31.7454 11.9476 30.7154 11.9476H28.2435V11.9991L20.9308 11.9476C20.905 12.0506 20.8791 12.138 20.8533 12.2253C20.8274 12.3127 20.8016 12.4001 20.7758 12.5031C20.6064 12.9476 20.4379 13.3479 20.2098 13.8015L18.5103 21.2687C18.0984 22.9682 17.7379 24.4616 17.4804 25.7491L16.8109 28.7874C16.5534 29.9719 16.9139 30.5899 17.8924 30.5899H24.5871L26.544 30.6414H27.1105C27.162 30.6414 27.2006 30.6285 27.2393 30.6156C27.2779 30.6028 27.3165 30.5899 27.368 30.5899ZM18.4588 42.5889H17.3259H10.3221C6.61428 42.5889 4.14237 41.6105 2.75192 39.705C1.41297 37.7996 1.20698 34.9157 2.13394 30.9504L6.51128 11.6901C7.02627 9.32116 7.59274 7.41573 8.26222 5.92228C8.9317 4.37734 9.75567 3.19288 10.7856 2.31741C11.8156 1.44195 13.0515 0.875468 14.4935 0.514981C15.9869 0.154494 17.7894 0 19.9523 0H30.3034H31.4364H38.4401C42.0965 0 44.6199 0.926966 45.9589 2.8324C47.2978 4.73783 47.5038 7.67322 46.5768 11.6386L43.9504 23.4316L42.251 30.8989C41.736 33.2163 41.1695 35.1732 40.5001 36.6667C39.8306 38.1601 39.0066 39.3446 37.9766 40.22C36.9467 41.0955 35.7107 41.7135 34.2173 42.074C32.7753 42.3829 30.9214 42.5889 28.7585 42.5889H18.4588Z" fill="white"/>
<path d="M46.8858 32.7013L53.1686 1.64793C53.323 0.978453 53.735 0.669464 54.4045 0.669464H64.6011C65.2191 0.669464 65.4766 0.978453 65.3736 1.64793L59.5028 30.9504C59.3998 31.5168 59.3998 31.8773 59.5028 32.1348C59.6058 32.3408 59.8633 32.4438 60.3268 32.4438H64.1891C64.9101 32.4438 65.1676 32.8043 64.9616 33.4738L63.1077 41.868C62.9532 42.5374 62.5412 42.8979 61.8202 42.8979H53.22C51.4691 42.8979 50.0787 42.6919 49.1002 42.2285C48.0702 41.765 47.3493 41.0955 46.8858 40.22C46.4738 39.3446 46.2678 38.2631 46.3193 37.0271C46.3193 35.7397 46.5253 34.3492 46.8858 32.7013Z" fill="white"/>
<path d="M62.8502 53.97L64.7556 45.5758C64.9101 44.9064 65.3221 44.5459 65.9916 44.5459H73.1498L73.3043 44.3399C72.8408 44.3399 72.5318 44.2369 72.3773 44.0309C72.2743 43.8249 72.1198 43.5159 72.0683 43.0009L66.4551 14.677C66.3006 14.059 66.6095 13.6985 67.3305 13.6985H77.5271C78.1451 13.6985 78.5056 14.059 78.6601 14.677L80.823 28.3755C80.926 29.045 80.926 29.7659 80.7715 30.5384C80.6685 31.2594 80.514 31.9803 80.3595 32.7013H80.4625C80.617 31.9803 80.8745 31.2594 81.132 30.5384C81.441 29.8174 81.75 29.148 82.162 28.427L89.6292 14.677C89.9897 14.059 90.5047 13.6985 91.2256 13.6985H103.379C104.049 13.6985 104.203 14.059 103.791 14.677L80.514 54.0215C80.1021 54.6395 79.5871 55 78.9176 55H63.6742C62.9532 55 62.6957 54.6395 62.8502 53.97Z" fill="white"/>
<path d="M101.371 41.868L105.388 24.1526H101.783C101.113 24.1526 100.856 23.7921 100.959 23.1227L105.336 14.7285C105.439 14.059 105.851 13.6985 106.572 13.6985H118.623C119.292 13.6985 147.462 13.6985 147.462 13.6985C149.058 13.6985 150.294 13.853 151.221 14.162C152.148 14.4195 152.817 14.883 153.229 15.5524C153.641 16.2219 153.847 17.0459 153.796 18.1274C153.744 19.1573 153.59 20.4448 153.229 21.9897L148.749 41.765C148.543 42.5375 148.131 42.8979 147.359 42.8979H137.368C136.596 42.8979 136.338 42.5375 136.493 41.765L140.149 25.6461C140.355 24.6676 140.046 24.1526 139.222 24.1526H135.051L131.034 41.868C130.931 42.5375 130.519 42.8979 129.798 42.8979H119.704C119.086 42.8979 118.829 42.5375 118.932 41.868L122.64 25.6461C122.846 24.6676 122.537 24.1526 121.764 24.1526H117.49L113.524 41.868C113.37 42.5375 112.958 42.8979 112.288 42.8979H102.143C101.525 42.8979 101.268 42.5375 101.371 41.868Z" fill="white"/>
<path d="M149.985 53.97L156.68 24.1526H155.856C155.186 24.1526 154.929 23.7921 155.083 23.1227L157.04 14.7285C157.143 14.059 157.555 13.6985 158.276 13.6985H183.613C186.343 13.6985 188.248 14.471 189.33 15.9129C190.411 17.4064 190.668 19.5178 190.051 22.2987L187.321 34.4008C186.961 36.1002 186.497 37.4906 185.982 38.5721C185.467 39.7051 184.849 40.529 184.077 41.1985C183.304 41.8165 182.326 42.28 181.193 42.5375C180.06 42.795 178.618 42.8979 176.97 42.8979H171.202C170.533 42.8979 169.966 42.7435 169.451 42.4345L165.383 39.7051L162.19 53.97C161.984 54.6395 161.572 55 160.954 55H150.757C150.036 55 149.779 54.6395 149.985 53.97ZM174.189 32.4438C175.065 32.4438 175.58 31.9803 175.786 30.9504L177.021 25.6461C177.227 24.6676 176.919 24.1526 176.095 24.1526H168.885L167.031 32.4438H174.189Z" fill="white"/>
<path d="M190.978 33.6283L195.303 14.7285C195.406 14.059 195.818 13.6985 196.539 13.6985H206.736C207.354 13.6985 207.611 14.059 207.508 14.7285L203.801 30.9504C203.595 31.9803 203.904 32.4438 204.676 32.4438H211.989L216.006 14.7285C216.16 14.059 216.572 13.6985 217.242 13.6985H227.438C228.056 13.6985 228.314 14.059 228.211 14.7285L224.142 32.4438H225.533C226.254 32.4438 226.511 32.8043 226.305 33.4738L224.4 41.868C224.297 42.5375 223.885 42.8979 223.164 42.8979H196.642C194.119 42.8979 192.368 42.1255 191.39 40.529C190.411 38.9841 190.308 36.6667 190.978 33.6283Z" fill="white"/>
<path d="M226.769 41.868L228.674 33.5253C228.777 32.8558 229.189 32.4953 229.91 32.4953H246.338C246.801 32.4953 247.059 32.2378 247.213 31.6714C247.368 31.0534 247.162 30.7444 246.698 30.7444H235.369C230.889 30.7444 229.138 28.3755 230.168 23.6377L230.837 20.7023C231.146 19.2603 231.507 18.0759 231.867 17.1489C232.279 16.2219 232.794 15.5524 233.412 15.0375C234.03 14.5225 234.802 14.162 235.781 14.0075C236.708 13.8015 237.892 13.6985 239.283 13.6985H261.427C262.045 13.6985 262.302 14.059 262.199 14.7285L260.294 23.1227C260.088 23.7921 259.676 24.1526 259.007 24.1526H244.021C243.609 24.1526 243.3 24.4616 243.197 25.0281C243.042 25.5946 243.145 25.9036 243.609 25.9036H254.681C259.522 25.9036 261.375 28.324 260.242 33.2163L259.522 36.3062C259.264 37.5936 258.904 38.6236 258.492 39.4991C258.08 40.323 257.513 40.9925 256.844 41.5075C256.174 42.0225 255.299 42.383 254.372 42.589C253.393 42.795 252.209 42.8979 250.818 42.8979H227.541C226.923 42.8979 226.666 42.5375 226.769 41.868Z" fill="white"/>
</svg>
